<?xml version="1.0" encoding="UTF-8" standalone="no"?>
<!-- Created with Inkscape (http://www.inkscape.org/) -->

<svg
   version="1.1"
   id="svg2"
   width="512"
   height="512"
   viewBox="0 0 512 512"
   sodipodi:docname="internet.svg"
   inkscape:version="1.1.1 (3bf5ae0d25, 2021-09-20)"
   xmlns:inkscape="http://www.inkscape.org/namespaces/inkscape"
   xmlns:sodipodi="http://sodipodi.sourceforge.net/DTD/sodipodi-0.dtd"
   xmlns="http://www.w3.org/2000/svg"
   xmlns:svg="http://www.w3.org/2000/svg">
  <defs
     id="defs6" />
  <sodipodi:namedview
     id="namedview4"
     pagecolor="#ffffff"
     bordercolor="#666666"
     borderopacity="1.0"
     inkscape:pageshadow="2"
     inkscape:pageopacity="0.0"
     inkscape:pagecheckerboard="0"
     showgrid="false"
     inkscape:zoom="1.1214272"
     inkscape:cx="209.10854"
     inkscape:cy="368.72658"
     inkscape:window-width="1920"
     inkscape:window-height="1001"
     inkscape:window-x="-9"
     inkscape:window-y="-9"
     inkscape:window-maximized="1"
     inkscape:current-layer="g8" />
  <g
     inkscape:groupmode="layer"
     inkscape:label="Image"
     id="g8">
    <path
       style="fill:#cccccc"
       d="m 248.07052,478.33999 -14.95671,-14.83739 -14.3282,14.20607 c -14.31172,14.18974 -14.33355,14.20607 -18.98493,14.20607 -7.37992,0 -9.68518,-2.84923 -15.75385,-19.47125 -2.80549,-7.68419 -5.52327,-14.7605 -6.03953,-15.72513 -0.87964,-1.64362 -5.57362,-1.77116 -74.66677,-2.02875 l -73.728129,-0.27487 -5.675146,-2.66041 c -6.786858,-3.18155 -13.792916,-9.40301 -17.2696726,-15.33564 -5.601613,-9.55843 -5.555181,-8.72611 -5.555181,-99.57919 0,-83.11736 0.01332,-83.67198 2.07258,-86.2899 2.866276,-3.64388 7.9885636,-3.64388 10.8548396,0 2.059283,2.61795 2.072643,3.17453 2.082349,86.75 l 0.0098,84.11514 2.361231,5.07086 c 2.662465,5.71778 8.404369,10.98822 13.619231,12.50097 2.261746,0.6561 27.592724,0.91143 71.599518,0.72173 l 68.09949,-0.29356 -16.34952,-43.90177 c -10.73446,-28.8242 -16.34952,-45.22844 -16.34952,-47.76468 0,-2.96945 0.7517,-4.67707 3.25,-7.3829 6.05138,-6.55407 3.15349,-7.31052 76.7903,20.04503 36.55284,13.57912 67.82947,25.32996 69.50364,26.11297 4.39312,2.05469 6.81826,6.65431 6.14702,11.65872 -0.48481,3.61459 -2.05847,5.57687 -14.34219,17.88415 l -13.79762,13.82408 4.91056,4.98552 4.91056,4.98553 49.70959,0.27667 c 47.26637,0.26308 49.81302,0.37031 51.81387,2.18167 2.74603,2.48597 2.79932,7.89996 0.10427,10.59501 -1.93648,1.93648 -3.33333,2 -43.98395,2 H 292.1445 l 2.09251,4.01456 c 3.63335,6.97074 2.35984,9.80111 -10.0642,22.36774 -10.51202,10.63266 -10.87797,10.89375 -15.95221,11.38132 l -5.19337,0.49902 z m 16.384,-29.58336 c -13.57756,-13.59749 -15.67545,-16.11899 -15.67545,-18.8407 0,-2.70921 1.97843,-5.12421 14.35642,-17.52432 13.72687,-13.7514 14.24943,-14.42177 11.91667,-15.28714 -18.88407,-7.00529 -81.36292,-30.27142 -97.3971,-36.26912 -11.52654,-4.31159 -21.14555,-7.65106 -21.37557,-7.42103 -0.38875,0.38875 43.58194,119.47435 44.4695,120.43652 0.22125,0.23986 6.84091,-5.94764 14.71034,-13.75 12.70029,-12.59204 14.68544,-14.1861 17.66658,-14.1861 2.99614,0 5.03777,1.6696 18.92191,15.47392 l 15.56339,15.47393 6.25939,-6.20375 6.25938,-6.20375 z m 139.65507,4.35692 c -3.05932,-2.47729 -3.12533,-7.51455 -0.13765,-10.50437 2.16251,-2.16406 2.72212,-2.20136 40.41666,-2.69444 37.13469,-0.48575 38.32401,-0.56233 41.74086,-2.68759 4.8685,-3.02819 7.51362,-6.05101 9.89891,-11.31241 2.0191,-4.45366 2.04033,-5.82059 2.06207,-132.75 l 0.022,-128.25 h -241 -240.999999 v 29.38922 c 0,27.22471 -0.13781,29.5594 -1.871159,31.7 -2.600039,3.21091 -8.6576416,3.21091 -11.2576806,0 -1.783375,-2.20238 -1.87116,-5.22789 -1.87116,-64.48991 0,-52.93272 0.23047,-63.06395 1.549833,-68.12932 C 5.5366264,82.349336 13.390348,73.021105 23.99243,68.049897 l 5.620011,-2.635165 193.424859,-0.260038 193.42487,-0.260038 2.32513,2.184352 c 2.83573,2.664029 3.0061,6.773158 0.41358,9.974938 l -1.91156,2.36079 -192.83844,0.5 -192.838439,0.5 -3.517058,2.18759 c -4.8685,3.02818 -7.513623,6.051014 -9.898912,11.312414 -1.882006,4.15126 -2.041808,6.49552 -2.062068,30.25 l -0.02196,25.75 h 240.999997 241 l -0.022,-25.75 c -0.0202,-23.75448 -0.18002,-26.09874 -2.06203,-30.25 -2.38529,-5.2614 -5.03041,-8.284234 -9.89891,-11.312414 -3.20111,-1.99108 -5.20955,-2.23251 -22.35743,-2.68759 -18.30672,-0.48584 -18.89446,-0.56687 -20.75,-2.86079 -2.61758,-3.23598 -2.41971,-7.311391 0.48759,-10.042656 2.34356,-2.201666 2.83035,-2.244734 21.75,-1.924314 18.47146,0.31283 19.60871,0.447761 24.97279,2.962921 10.60208,4.971208 18.45581,14.299439 21.33016,25.334833 1.36864,5.25456 1.54983,24.72382 1.54983,166.53001 0,141.80618 -0.18119,161.27545 -1.54983,166.53001 -2.87435,11.03539 -10.72808,20.36362 -21.33016,25.33482 l -5.62001,2.63517 -39.08614,0.29298 c -37.0599,0.27779 -39.20695,0.19515 -41.41667,-1.59417 z M 88.286286,328.16474 c -2.242304,-1.91633 -27.173885,-73.23159 -27.173885,-77.72924 0,-5.43166 7.937772,-8.69703 12.064053,-4.96279 0.946843,0.85688 5.707277,13.23048 10.578741,27.49689 4.871464,14.26641 9.082206,25.93908 9.357206,25.93927 0.275,1.8e-4 4.727155,-11.94319 9.893679,-26.54083 9.66456,-27.30652 10.82159,-29.4533 15.87428,-29.4533 4.03371,0 6.76385,4.08756 10.72524,16.05783 6.81422,20.59078 13.74726,40.03505 14.13619,39.64611 0.20969,-0.20968 4.20657,-11.28851 8.88197,-24.61961 10.88494,-31.0366 10.34862,-30.04111 16.19968,-30.06902 3.57955,-0.0171 7.28896,3.16538 7.28896,6.25347 0,3.09666 -25.83778,75.89449 -27.64604,77.89259 -2.34638,2.59272 -7.51959,2.38039 -10.02269,-0.41137 -1.10954,-1.2375 -5.97191,-13.85357 -10.80527,-28.03571 -4.83335,-14.18214 -8.98465,-25.58897 -9.22511,-25.34851 -0.24046,0.24045 -4.65286,12.2791 -9.80535,26.75255 -5.41105,15.19975 -10.10939,26.85736 -11.122974,27.59851 -2.476921,1.81117 -6.789252,1.59232 -9.19868,-0.46684 z m 138.478144,-0.082 c -2.25397,-2.49062 -26.65203,-73.53706 -26.65203,-77.60996 0,-1.87668 0.77212,-3.94683 1.82874,-4.90305 2.17763,-1.97073 7.09318,-2.16378 9.53993,-0.37468 1.63913,1.19856 7.2699,16.10127 16.07981,42.55769 2.07654,6.2359 4.13174,10.9609 4.56711,10.5 0.43537,-0.4609 4.76041,-12.088 9.6112,-25.838 9.01655,-25.55825 11.1017,-29.5 15.60525,-29.5 5.0898,0 6.19868,2.08411 15.27359,28.70622 4.8359,14.18658 9.07667,26.12249 9.42392,26.52424 0.34725,0.40175 4.66766,-10.83573 9.60091,-24.97219 4.93325,-14.13646 9.75704,-26.50266 10.71954,-27.48046 2.71644,-2.75961 8.17735,-2.32128 10.67742,0.85705 1.13992,1.44917 2.07258,3.13348 2.07258,3.74291 0,0.60943 -5.88859,17.98624 -13.08575,38.61514 -8.50762,24.38499 -13.79423,38.11934 -15.11079,39.25709 -2.62653,2.26981 -7.31614,2.23732 -9.6201,-0.0666 -0.99916,-0.99916 -5.80698,-13.60633 -10.68406,-28.01595 -4.87708,-14.40961 -9.16929,-25.85462 -9.53824,-25.43335 -0.36896,0.42127 -4.63582,12.01594 -9.48192,25.76594 -4.8461,13.75 -9.71484,26.0125 -10.81943,27.25 -2.48918,2.7887 -7.66652,3.00494 -10.00768,0.41799 z m 136.57227,0.0563 c -1.84171,-1.84171 -27.2243,-74.503 -27.2243,-77.93346 0,-5.57106 9.22538,-8.36236 12.76513,-3.8623 1.05065,1.33569 5.63799,13.37319 10.19408,26.75 4.55609,13.3768 8.61262,24.68246 9.01451,25.12368 0.4019,0.44122 4.68406,-10.35878 9.51593,-24 4.83187,-13.64122 9.38173,-25.98519 10.1108,-27.43104 2.15581,-4.27528 7.53323,-5.25858 11.01559,-2.01427 1.20957,1.12689 5.48032,12.14476 10.86319,28.02538 4.87851,14.39265 9.17734,25.81954 9.55295,25.39308 0.3756,-0.42645 4.59828,-12.01895 9.38372,-25.76111 4.78545,-13.74216 9.41929,-25.77966 10.29744,-26.75 3.70932,-4.09875 12.28666,-0.8129 12.28666,4.70683 0,3.86652 -25.07308,74.75907 -27.33179,77.27891 -2.37783,2.65273 -7.1938,2.98931 -9.74442,0.68103 -0.95353,-0.86293 -5.67136,-13.12543 -10.48407,-27.25 -4.81271,-14.12457 -9.04184,-26.01989 -9.39807,-26.43404 -0.35622,-0.41416 -4.81446,11.06084 -9.90719,25.5 -5.88678,16.69046 -10.00558,26.89044 -11.30777,28.00301 -2.63859,2.25437 -7.33489,2.2418 -9.60239,-0.0257 z M 59.612401,127.5031 c -1.65,-0.73335 -4.125,-2.55199 -5.5,-4.04143 -2.072024,-2.24447 -2.5,-3.70762 -2.5,-8.54693 0,-4.84798 0.424267,-6.29294 2.5,-8.51445 5.151914,-5.51374 10.501354,-6.76507 16.583108,-3.87909 10.185123,4.83315 9.788538,20.62695 -0.622546,24.79264 -4.788181,1.91585 -6.505875,1.94693 -10.460562,0.18926 z m 41.816319,-0.48339 c -4.960992,-2.3097 -7.317823,-6.27568 -7.312581,-12.30531 0.0047,-5.43587 2.724844,-9.96845 7.279331,-12.1297 4.27491,-2.02858 6.77981,-2.09663 10.99905,-0.29884 5.18618,2.2098 7.95121,5.93702 8.4172,11.34624 0.93839,10.89286 -9.4017,18.03464 -19.383,13.38761 z m 42.75476,0.19739 c -12.33465,-6.48355 -9.24164,-24.24366 4.5155,-25.92796 7.30919,-0.89488 14.11048,4.62799 15.03902,12.21217 1.27719,10.43193 -10.32281,18.56832 -19.55452,13.71579 z"
       id="path863" />
  </g>
</svg>
